/* XPM */
static char * east_texture_xpm[] = {
"64 64 2 1",
"  c #FFFFFF",
"* c #0000FF",
"                                                                ",
"                                                                ",
"  ************************************************************  ",
"  ************************************************************  ",
"  ************************************************************  ",
"  ************************************************************  ",
"  ************************************************************  ",
"  ************************************************************  ",
"  ************************************************************  ",
"  ************************************************************  ",
"  ************************************************************  ",
"  ************************************************************  ",
"  ************************************************************  ",
"  ************************************************************  ",
"  ************************************************************  ",
"  ************************************************************  ",
"  ************************************************************  ",
"  ********************                   *********************  ",
"  ********************                   *********************  ",
"  ********************                   *********************  ",
"  ********************                   *********************  ",
"  ********************                   *********************  ",
"  ********************       *********************************  ",
"  ********************       *********************************  ",
"  ********************       *********************************  ",
"  ********************       *********************************  ",
"  ********************       *********************************  ",
"  ********************       *********************************  ",
"  ********************       *********************************  ",
"  ********************                   *********************  ",
"  ********************                   *********************  ",
"  ********************                   *********************  ",
"  ********************                   *********************  ",
"  ********************                   *********************  ",
"  ********************       *********************************  ",
"  ********************       *********************************  ",
"  ********************       *********************************  ",
"  ********************       *********************************  ",
"  ********************       *********************************  ",
"  ********************       *********************************  ",
"  ********************       *********************************  ",
"  ********************                    ********************  ",
"  ********************                    ********************  ",
"  ********************                    ********************  ",
"  ********************                    ********************  ",
"  ********************                    ********************  ",
"  ************************************************************  ",
"  ************************************************************  ",
"  ************************************************************  ",
"  ************************************************************  ",
"  ************************************************************  ",
"  ************************************************************  ",
"  ************************************************************  ",
"  ************************************************************  ",
"  ************************************************************  ",
"  ************************************************************  ",
"  ************************************************************  ",
"  ************************************************************  ",
"  ************************************************************  ",
"  ************************************************************  ",
"  ************************************************************  ",
"  ************************************************************  ",
"                                                                ",
"                                                                ",
};