/* XPM */
static char * north_texture_xpm[] = {
"64 64 2 1",
"  c #000000",
"* c #87CEEB",
"                                                                ",
"                                                                ",
"  ************************************************************  ",
"  ************************************************************  ",
"  ************************************************************  ",
"  ************************************************************  ",
"  ************************************************************  ",
"  ************************************************************  ",
"  ************************************************************  ",
"  ************************************************************  ",
"  ************************************************************  ",
"  ************************************************************  ",
"  ************************************************************  ",
"  ************************************************************  ",
"  ************************************************************  ",
"  ************************************************************  ",
"  ************************************************************  ",
"  *****************        ***********      ******************  ",
"  *****************        ***********      ******************  ",
"  *****************         **********      ******************  ",
"  *****************         **********      ******************  ",
"  *****************          *********      ******************  ",
"  *****************          *********      ******************  ",
"  *****************           ********      ******************  ",
"  *****************           ********      ******************  ",
"  *****************            *******      ******************  ",
"  *****************      **    *******      ******************  ",
"  *****************      **     ******      ******************  ",
"  *****************      ***    ******      ******************  ",
"  *****************      ***     *****      ******************  ",
"  *****************      ****     ****      ******************  ",
"  *****************      ****     ****      ******************  ",
"  *****************      *****     ***      ******************  ",
"  *****************      *****     ***      ******************  ",
"  *****************      ******     **      ******************  ",
"  *****************      *******    **      ******************  ",
"  *****************      *******     *      ******************  ",
"  *****************      ********           ******************  ",
"  *****************      ********           ******************  ",
"  *****************      *********          ******************  ",
"  *****************      *********          ******************  ",
"  *****************      **********         ******************  ",
"  *****************      **********         ******************  ",
"  *****************      ***********        ******************  ",
"  *****************      ***********        ******************  ",
"  *****************      ************       ******************  ",
"  ************************************************************  ",
"  ************************************************************  ",
"  ************************************************************  ",
"  ************************************************************  ",
"  ************************************************************  ",
"  ************************************************************  ",
"  ************************************************************  ",
"  ************************************************************  ",
"  ************************************************************  ",
"  ************************************************************  ",
"  ************************************************************  ",
"  ************************************************************  ",
"  ************************************************************  ",
"  ************************************************************  ",
"  ************************************************************  ",
"  ************************************************************  ",
"                                                                ",
"                                                                ",
};