/* XPM */
static char *north_2[] = {
/* columns rows colors chars-per-pixel */
"64 47 175 2 ",
"   c #0B0E0F",
".  c #191513",
"X  c #201914",
"o  c #211914",
"O  c #231A15",
"+  c #231B15",
"@  c #241B15",
"#  c #251C15",
"$  c #251C16",
"%  c #261C16",
"&  c #271D16",
"*  c #281D16",
"=  c #281E16",
"-  c #291E16",
";  c #2A1F17",
":  c #2B1F17",
">  c #2C1F17",
",  c #2C2017",
"<  c #2D2017",
"1  c #2E2017",
"2  c #2E2018",
"3  c #2E2118",
"4  c #302218",
"5  c #312218",
"6  c #322318",
"7  c #322319",
"8  c #332319",
"9  c #342419",
"0  c #362519",
"q  c #37261A",
"w  c #38261A",
"e  c #39261A",
"r  c #39271A",
"t  c #3B271A",
"y  c #3B281B",
"u  c #3C281B",
"i  c #3D281B",
"p  c #3D291B",
"a  c #3F2A1B",
"s  c #3F2A1C",
"d  c #412B1C",
"f  c #432C1C",
"g  c #442D1D",
"h  c #452D1D",
"j  c #462D1D",
"k  c #462E1D",
"l  c #482F1E",
"z  c #492F1E",
"x  c #4A301E",
"c  c #4B301E",
"v  c #4C311E",
"b  c #4D311F",
"n  c #4E321F",
"m  c #4F321F",
"M  c #51331F",
"N  c #523420",
"B  c #563621",
"V  c #573721",
"C  c #583721",
"Z  c #5A3822",
"A  c #5B3922",
"S  c #5C3922",
"D  c #5D3A22",
"F  c #613C23",
"G  c #623D23",
"H  c #623D24",
"J  c #633D24",
"K  c #643E24",
"L  c #663F24",
"P  c #684025",
"I  c #694025",
"U  c #6A4125",
"Y  c #6B4226",
"T  c #6C4226",
"R  c #6D4326",
"E  c #6F4326",
"W  c #704427",
"Q  c #714527",
"!  c #744628",
"~  c #794929",
"^  c #7A4A29",
"/  c #7B4A29",
"(  c #7C4B29",
")  c #7C4B2A",
"_  c #7F4C2A",
"`  c #7F4D2A",
"'  c #804D2A",
"]  c #824E2B",
"[  c #844F2B",
"{  c #85502C",
"}  c #86502C",
"|  c #87512C",
" . c #88512C",
".. c #8C532D",
"X. c #8D542D",
"o. c #8E542E",
"O. c #8F552E",
"+. c #90562E",
"@. c #91562E",
"#. c #92572F",
"$. c #93572F",
"%. c #94572F",
"&. c #94582F",
"*. c #96592F",
"=. c #9A5B30",
"-. c #9B5B31",
";. c #9C5C31",
":. c #9D5D31",
">. c #9E5D31",
",. c #9F5D31",
"<. c #9F5E31",
"1. c #A05E32",
"2. c #A15F32",
"3. c #A25F32",
"4. c #A46133",
"5. c #A56133",
"6. c #A66233",
"7. c #A86234",
"8. c #A86334",
"9. c #A96334",
"0. c #AB6434",
"q. c #AD6535",
"w. c #AE6635",
"e. c #AF6635",
"r. c #B06736",
"t. c #B16736",
"y. c #B26836",
"u. c #B36936",
"i. c #B46936",
"p. c #B66A37",
"a. c #B76B37",
"s. c #B86B37",
"d. c #B96C38",
"f. c #BA6C38",
"g. c #BC6D38",
"h. c #BE6E39",
"j. c #BF6F39",
"k. c #C17039",
"l. c #C2703A",
"z. c #C3713A",
"x. c #C4713A",
"c. c #C4723A",
"v. c #C5723A",
"b. c #C6733A",
"n. c #C6733B",
"m. c #C7733B",
"M. c #CB753C",
"N. c #CB763C",
"B. c #CC763C",
"V. c #CD773C",
"C. c #CE773C",
"Z. c #CE773D",
"A. c #CF773D",
"S. c #CF783D",
"D. c #D0783D",
"F. c #D1793D",
"G. c #D2793D",
"H. c #D37A3D",
"J. c #D37A3E",
"K. c #D47A3E",
"L. c #D57B3E",
"P. c #D67B3E",
"I. c #D67C3E",
"U. c #D77C3F",
"Y. c #D87C3F",
"T. c #D87D3F",
"R. c #D97D3F",
"E. c #DA7D3F",
"W. c #DA7E3F",
"Q. c #DB7E3F",
"!. c #DB7E40",
"~. c #DC7E40",
"^. c #DC7F40",
"/. c #DD7F40",
"(. c #DF8040",
/* pixels */
"R.R.R.R.R.R.R.R.R.R.R.R.R.R.R.R.R.R.R.R.R.R.R.R.R.R.R.R.R.R.R.R.R.R.R.R.R.R.R.R.R.R.R.R.R.R.R.R.R.R.R.R.R.R.R.R.R.R.R.R.R.R.R.R.",
"R.R.R.R.R.R.R.R.R.R.R.R.R.R.R.R.R.R.R.R.R.R.R.R.R.R.R.R.R.R.R.R.R.R.R.R.R.R.R.R.R.R.R.R.R.R.R.R.R.R.R.R.R.R.R.R.R.R.R.R.R.R.R.R.",
"R.R.R.R.R.R.R.R.R.R.R.R.R.R.R.R.R.R.R.R.R.R.R.R.R.R.R.R.R.R.R.R.R.R.R.R.R.R.R.R.R.R.R.R.R.R.R.R.R.R.R.R.R.R.R.R.R.R.R.R.R.R.R.R.",
"R.R.R.R.R.R.R.R.R.R.R.R.R.R.R.R.R.R.R.R.R.R.R.R.R.R.R.R.R.R.R.R.R.R.R.R.R.R.R.R.R.R.R.R.R.R.R.R.R.R.R.R.R.R.R.R.R.R.R.R.R.R.R.R.",
"R.R.R.R.R.R.R.R.R.R.R.R.R.R.R.R.R.R.R.R.R.R.R.R.R.R.R.R.R.R.R.R.R.R.R.R.R.R.R.R.R.R.R.R.R.R.R.R.R.R.R.R.R.R.R.R.R.R.R.R.R.R.R.R.",
"R.R.R.R.R.R.R.R.R.R.R.R.R.R.R.R.R.R.R.R.R.!.!.!.R.R.R.R.R.R.R.R.R.R.R.R.R.R.R.R.R.R.R.R.R.R.R.R.R.R.R.R.R.R.R.R.R.R.R.R.R.R.R.R.",
"R.R.R.R.R.R.R.R.R.R.R.R.R.R.R.R.R.R.R.R.!.y.~ m.!.R.R.R.R.R.R.R.R.R.R.R.R.R.R.R.R.R.R.R.R.R.!.R.R.R.R.R.R.R.R.R.R.R.R.R.R.R.R.R.",
"R.R.R.R.R.R.R.R.R.R.R.R.R.R.R.R.R.R.R.R.R.G   ! R.R.R.R.R.R.R.R.R.R.R.R.R.R.R.R.R.R.R.R.!.d.{ J.!.R.R.R.R.R.R.R.R.R.R.R.R.R.R.R.",
"R.R.R.R.R.R.R.R.R.R.R.R.R.R.R.R.R.R.R.!.n.8 # 8 l.!.R.R.R.R.R.R.R.R.R.R.R.R.R.R.R.R.R.R.U.G y V.!.R.R.R.R.R.R.R.R.R.R.R.R.R.R.R.",
"R.R.R.R.R.R.R.R.R.R.R.R.R.R.R.R.R.R.R.!.5.# o.2 ' !.R.R.R.R.R.R.R.R.R.R.R.R.R.R.R.R.R.!.6.+ { !.R.R.U.R.R.R.R.R.R.R.R.R.R.R.R.R.",
"R.R.R.R.R.R.R.R.R.R.R.R.R.R.R.R.R.R.R.!.! q M.G s S.!.R.R.R.R.R.R.R.R.R.R.R.R.R.R.R.!.l.s k M.!.R.R.R.R.R.R.R.R.R.R.R.R.R.R.R.R.",
"R.R.R.R.R.R.R.R.R.R.R.R.R.R.R.R.R.R.R.J.k G ^.5.+ 1.^.R.R.R.R.R.R.R.R.R.R.R.R.R.R.R.J.D , y.!.R.R.R.R.R.R.R.R.R.R.R.R.R.R.R.R.R.",
"R.R.R.R.R.R.R.R.R.R.R.R.R.R.R.R.R.R.!.h.: o.!.J.l N J.R.R.R.R.R.R.R.R.R.R.R.R.R.R.!.*.+ #.!.R.R.R.R.R.R.R.R.R.R.R.R.R.R.R.R.R.R.",
"R.R.R.R.R.R.R.R.R.R.R.R.R.R.R.R.R.R.!.;.# a.!.!.;.# ;.!.R.R.R.R.R.R.R.R.R.R.R.R.!.m.i V K.R.R.R.R.R.R.R.R.R.R.R.R.R.R.R.R.R.R.R.",
"R.R.R.R.R.R.R.R.R.R.R.R.R.R.R.R.R.R.!.E i S.!.R.J.x m U.R.R.R.R.R.R.R.R.R.R.R.R.!.~ : y.!.R.R.R.R.R.R.R.R.R.R.R.R.R.R.R.R.R.R.R.",
"R.R.R.R.R.R.R.R.R.R.R.R.R.R.R.R.R.R.J.d L !.R.R.^.*.+ o.R.R.R.R.R.R.R.R.R.R.R.!.n.8 T !.R.R.R.R.R.R.R.R.R.R.R.R.R.R.R.R.R.R.R.R.",
"R.R.R.R.R.R.R.R.R.R.R.R.R.R.R.R.R.!.y.# ;.!.R.R.R.J.Y , d.!.R.R.R.R.R.R.R.R.R.!.` # y.!.R.R.R.R.R.R.R.R.R.R.R.R.R.R.R.R.R.R.R.R.",
"R.R.R.R.R.R.R.R.R.R.R.R.R.R.R.R.R.^.` 5 n.!.R.R.R.!.l.5 E R.R.R.R.R.R.R.R.R.R.J.f G !.U.R.R.R.R.R.R.R.R.R.R.R.R.R.R.R.R.R.R.R.R.",
"R.R.R.R.R.R.R.R.R.R.R.R.R.R.R.R.R.J.x A R.R.R.R.R.R.!.~ , h.R.R.R.R.R.R.R.R.!.a.# *.(.U.R.R.R.R.R.R.R.R.R.R.R.R.R.R.R.R.R.R.R.R.",
"R.R.R.R.R.R.R.R.R.R.R.R.R.R.R.R.!.a.# *.!.R.R.R.R.R.!.h.2 ~ R.R.R.R.R.R.R.R.(.$., d.!.R.R.R.R.R.R.R.R.R.R.R.R.R.R.R.R.R.R.R.R.R.",
"R.R.R.R.R.R.R.R.R.R.R.R.R.R.R.R.!.{ 2 l.!.R.R.R.R.R.R.!.Y r M.R.R.R.R.R.R.R.!.D k J.U.!.R.R.R.R.R.R.R.R.R.R.R.R.R.R.R.R.R.R.R.R.",
"R.R.R.R.R.R.R.R.R.R.R.R.R.R.R.R.K.x A U.R.R.R.R.R.R.R.!.7.# 1.R.R.R.R.R.R.R.M.q ! !.!.U.R.R.R.R.R.U.R.R.R.R.R.R.R.R.R.R.R.R.R.R.",
"R.R.R.R.R.R.R.R.R.R.R.R.R.R.R.!.a.# #.!.R.R.R.R.R.R.R.R.S.i T R.R.R.R.R.R.!.q.@ 4.!.U.U.R.R.R.R.R.R.R.R.R.R.R.R.R.R.R.R.R.R.R.R.",
"R.R.R.R.R.R.R.R.R.R.R.R.R.R.R.!.~ 5 n.R.R.R.R.R.R.R.R.U.R.Y i V.R.R.R.R.!.(.{ 2 l.!.U.!.R.R.R.R.R.R.R.R.R.R.R.R.R.R.R.R.R.R.R.R.",
"R.R.R.R.R.R.R.R.R.R.R.R.R.R.R.M.r Y !.R.R.R.R.R.R.R.R.R.!.7.+ #.!.R.R.!.U.!.V v J.R.R.R.R.R.R.R.R.R.R.R.R.R.R.R.R.R.R.R.R.R.R.R.",
"R.R.R.R.R.R.R.R.R.R.R.R.R.R.^.;.# q.!.R.R.R.R.R.R.R.R.R.R.U.A s M.!.R.!.!.M.u W (.U.R.R.R.R.R.R.R.R.R.R.R.R.R.R.R.R.R.R.R.R.R.R.",
"R.R.R.R.R.R.R.R.R.R.R.R.R.R.U.B x J.R.R.R.R.R.R.R.R.R.R.R.!.6.+ ;.!.R.U.(.d.- $.(.U.R.R.R.R.R.R.R.R.R.R.R.R.R.R.R.R.R.R.R.R.R.R.",
"R.R.R.R.R.R.R.R.R.R.R.R.R.!.s.# o.^.R.R.R.R.R.R.R.R.R.R.R.R.J.k A !.R.!.(.;.# a.!.R.R.R.R.R.R.R.R.R.R.R.R.R.R.R.R.R.R.R.R.R.R.R.",
"R.R.R.R.R.R.R.R.R.R.R.R.R.!.{ , l.!.R.R.R.R.R.R.R.R.R.R.R.R.!.' 2 l.R.!.!.! y M.!.U.R.R.R.R.R.R.R.R.R.R.R.R.R.R.R.R.R.R.R.R.R.R.",
"R.R.R.R.R.R.R.R.R.R.R.R.R.U.B N K.R.R.R.R.R.R.R.R.R.R.R.R.R.!.a.# { R.!.J.x A !.R.R.R.R.R.R.R.R.R.R.R.R.R.R.R.R.R.R.R.R.R.R.R.R.",
"R.R.R.R.R.R.R.R.R.R.R.R.R.n.5 ' ^.R.R.R.R.R.R.R.R.R.R.R.R.R.R.U.V k S.(.l.2 { (.R.R.R.R.R.R.R.R.R.R.R.R.R.R.R.R.R.R.R.R.R.R.R.R.",
"R.R.R.R.R.R.R.R.R.R.R.R.^.7.# q.^.R.R.R.R.R.R.R.R.R.R.R.R.R.R.^.;.. 4.(.4.@ q.!.R.R.R.R.R.R.R.R.R.R.R.R.R.R.R.R.R.R.R.R.R.R.R.R.",
"R.R.R.R.R.R.R.R.R.R.R.R.(.O.+ t.!.R.R.R.R.R.R.R.R.R.R.R.R.R.R.!.M.q G J.N k S.R.R.R.R.R.R.R.R.R.R.R.R.R.R.R.R.R.R.R.R.R.R.R.R.R.",
"R.R.R.R.R.R.R.R.R.R.R.R.(.) q !.!.R.R.R.R.R.R.R.R.R.R.R.R.R.R.!.(.) 8 ` @ ;.!.R.R.R.R.R.R.R.R.R.R.R.R.R.R.R.R.R.R.R.R.R.R.R.R.R.",
"R.R.R.R.R.R.R.R.R.R.R.R.!.s.*.!.!.R.R.R.R.R.R.R.R.R.R.R.R.R.R.R.!.0.. . G J.R.R.R.R.R.R.R.R.R.R.R.R.R.R.R.R.R.R.R.R.R.R.R.R.R.R.",
"R.R.R.R.R.R.R.R.R.R.R.R.!.!.!.!.!.R.R.R.R.R.R.R.R.R.R.R.R.R.R.R.!.J.~ W M.R.R.R.R.R.R.R.R.R.R.R.R.R.R.R.R.R.R.R.R.R.R.R.R.R.R.R.",
"R.R.R.R.R.R.R.R.R.R.R.R.R.R.R.R.R.R.R.R.R.R.R.R.R.R.R.R.R.R.R.R.R.R.R.R.R.R.R.R.R.R.R.R.R.R.R.R.R.R.R.R.R.R.R.R.R.R.R.R.R.R.R.R.",
"R.R.R.R.R.R.R.R.R.R.R.R.R.R.R.R.R.R.R.R.R.R.R.R.R.R.R.R.R.R.R.R.R.R.R.R.R.R.R.R.R.R.R.R.R.R.R.R.R.R.R.R.R.R.R.R.R.R.R.R.R.R.R.R.",
"R.R.R.R.R.R.R.R.R.R.R.R.R.R.R.R.R.R.R.R.R.R.R.R.R.R.R.R.R.R.R.R.R.R.R.R.R.R.R.R.R.R.R.R.R.R.R.R.R.R.R.R.R.R.R.R.R.R.R.R.R.R.R.R.",
"R.R.R.R.R.R.R.R.R.R.R.R.R.R.R.R.R.R.R.R.R.R.R.R.R.R.R.R.R.R.R.R.R.R.R.R.R.R.R.R.R.R.R.R.R.R.R.R.R.R.R.R.R.R.R.R.R.R.R.R.R.R.R.R.",
"R.R.R.R.R.R.R.R.R.R.R.R.R.R.R.R.R.R.R.R.R.R.R.R.R.R.R.R.R.R.R.R.R.R.R.R.R.R.R.R.R.R.R.R.R.R.R.R.R.R.R.R.R.R.R.R.R.R.R.R.R.R.R.R.",
"R.R.R.R.R.R.R.R.R.R.R.R.R.R.R.R.R.R.R.R.R.R.R.R.R.R.R.R.R.R.R.R.R.R.R.R.R.R.R.R.R.R.R.R.R.R.R.R.R.R.R.R.R.R.R.R.R.R.R.R.R.R.R.R.",
"R.R.R.R.R.R.R.R.R.R.R.R.R.R.R.R.R.R.R.R.R.R.R.R.R.R.R.R.R.R.R.R.R.R.R.R.R.R.R.R.R.R.R.R.R.R.R.R.R.R.R.R.R.R.R.R.R.R.R.R.R.R.R.R.",
"R.R.R.R.R.R.R.R.R.R.R.R.R.R.R.R.R.R.R.R.R.R.R.R.R.R.R.R.R.R.R.R.R.R.R.R.R.R.R.R.R.R.R.R.R.R.R.R.R.R.R.R.R.R.R.R.R.R.R.R.R.R.R.R.",
"R.R.R.R.R.R.R.R.R.R.R.R.R.R.R.R.R.R.R.R.R.R.R.R.R.R.R.R.R.R.R.R.R.R.R.R.R.R.R.R.R.R.R.R.R.R.R.R.R.R.R.R.R.R.R.R.R.R.R.R.R.R.R.R.",
"R.R.R.R.R.R.R.R.R.R.R.R.R.R.R.R.R.R.R.R.R.R.R.R.R.R.R.R.R.R.R.R.R.R.R.R.R.R.R.R.R.R.R.R.R.R.R.R.R.R.R.R.R.R.R.R.R.R.R.R.R.R.R.R.",
"R.R.R.R.R.R.R.R.R.R.R.R.R.R.R.R.R.R.R.R.R.R.R.R.R.R.R.R.R.R.R.R.R.R.R.R.R.R.R.R.R.R.R.R.R.R.R.R.R.R.R.R.R.R.R.R.R.R.R.R.R.R.R.R."
};
