/* XPM */
static char *south_2[] = {
/* columns rows colors chars-per-pixel */
"64 54 195 2 ",
"   c #14181D",
".  c #14191F",
"X  c #141A1F",
"o  c #141A20",
"O  c #141A21",
"+  c #151A21",
"@  c #151B21",
"#  c #151B22",
"$  c #151C23",
"%  c #151C24",
"&  c #151D24",
"*  c #151D25",
"=  c #161D26",
"-  c #161E26",
";  c #161E27",
":  c #161F28",
">  c #161F29",
",  c #172029",
"<  c #17202A",
"1  c #17202B",
"2  c #17212B",
"3  c #17212C",
"4  c #17222D",
"5  c #18222E",
"6  c #18232E",
"7  c #18232F",
"8  c #182430",
"9  c #182431",
"0  c #182531",
"q  c #182532",
"w  c #192532",
"e  c #192533",
"r  c #192736",
"t  c #1A2939",
"y  c #1A2A3A",
"u  c #1B2C3D",
"i  c #1B2C3E",
"p  c #1B2D3F",
"a  c #1C2D40",
"s  c #1D3044",
"d  c #1D3045",
"f  c #1D3145",
"g  c #1D3146",
"h  c #1E3349",
"j  c #1E344A",
"k  c #1E344B",
"l  c #1E354C",
"z  c #1F354C",
"x  c #1F364E",
"c  c #1F364F",
"v  c #1F3750",
"b  c #203852",
"n  c #203953",
"m  c #203A54",
"M  c #203A55",
"N  c #213A55",
"B  c #213B57",
"V  c #223D5A",
"C  c #223F5D",
"Z  c #233F5E",
"A  c #23405F",
"S  c #234261",
"D  c #234262",
"F  c #244262",
"G  c #244364",
"H  c #254567",
"J  c #254568",
"K  c #254668",
"L  c #254669",
"P  c #26496E",
"I  c #274A70",
"U  c #274B71",
"Y  c #274B72",
"T  c #274C72",
"R  c #274C73",
"E  c #284D74",
"W  c #284D75",
"Q  c #284E75",
"!  c #284E76",
"~  c #284F78",
"^  c #29507A",
"/  c #29517B",
"(  c #2A527D",
")  c #2A537E",
"_  c #2A547F",
"`  c #2A5480",
"'  c #2B5682",
"]  c #2B5683",
"[  c #2B5785",
"{  c #2C5886",
"}  c #2C5887",
"|  c #2C5988",
" . c #2C5989",
".. c #2C5A89",
"X. c #2D5A8A",
"o. c #2D5B8C",
"O. c #2D5C8D",
"+. c #2E5C8E",
"@. c #2E5D8F",
"#. c #2E5E90",
"$. c #2E5E91",
"%. c #2E5F91",
"&. c #2F5F93",
"*. c #2F6093",
"=. c #2F6094",
"-. c #2F6196",
";. c #306296",
":. c #306297",
">. c #306399",
",. c #30649A",
"<. c #31649A",
"1. c #31649B",
"2. c #31669E",
"3. c #31679F",
"4. c #32679F",
"5. c #3268A0",
"6. c #3268A1",
"7. c #3269A2",
"8. c #336AA4",
"9. c #336BA6",
"0. c #336CA7",
"q. c #336CA8",
"w. c #346CA8",
"e. c #346DA9",
"r. c #346DAA",
"t. c #346EAB",
"y. c #346FAC",
"u. c #3570AE",
"i. c #3571AF",
"p. c #3571B0",
"a. c #3672B1",
"s. c #3672B2",
"d. c #3673B3",
"f. c #3673B4",
"g. c #3775B6",
"h. c #3775B7",
"j. c #3776B8",
"k. c #3776B9",
"l. c #3877BA",
"z. c #3878BB",
"x. c #3878BC",
"c. c #3879BC",
"v. c #3879BD",
"b. c #3979BD",
"n. c #397ABE",
"m. c #397ABF",
"M. c #397BBF",
"N. c #397BC0",
"B. c #397BC1",
"V. c #397CC1",
"C. c #3A7CC2",
"Z. c #3A7DC3",
"A. c #3A7DC4",
"S. c #3A7EC4",
"D. c #3A7EC5",
"F. c #3A7EC6",
"G. c #3B7EC6",
"H. c #3B7FC6",
"J. c #3B7FC7",
"K. c #3B80C8",
"L. c #3B80C9",
"P. c #3B81C9",
"I. c #3B81CA",
"U. c #3C81CA",
"Y. c #3C81CB",
"T. c #3C82CB",
"R. c #3C82CC",
"E. c #3C83CD",
"W. c #3C83CE",
"Q. c #3D84CE",
"!. c #3D84CF",
"~. c #3D85D0",
"^. c #3D85D1",
"/. c #3D86D2",
"(. c #3D86D3",
"). c #3E86D3",
"_. c #3E87D3",
"`. c #3E87D4",
"'. c #3E87D5",
"]. c #3E88D5",
"[. c #3E88D6",
"{. c #3E89D7",
"}. c #3F89D7",
"|. c #3D89D9",
" X c #3F89D8",
".X c #3F8AD8",
"XX c #3F8AD9",
"oX c #3F8ADA",
"OX c #3F8BDA",
"+X c #3F8BDB",
"@X c #408BDB",
"#X c #408CDB",
"$X c #408CDC",
"%X c #408CDD",
"&X c #6C9BCC",
/* pixels */
"XXXXXXXXXXXXXXXXXXXXXXXXXXXXXXXXXXXXXXXXXXXXXXXXXXXXXXXXXXXXXXXXXXXXXXXXXXXXXXXXXXXXXXXXXXXXXXXXXXXXXXXXXXXXXXXXXXXXXXXXXXXXXXXX",
"XXXXXXXXXXXXXXXXXXXXXXXXXXXXXXXXXXXXXXXXXXXXXXXXXXXXXXXXXXXXXXXXXXXXXXXXXXXXXXXXXXXXXXXXXXXXXXXXXXXXXXXXXXXXXXXXXXXXXXXXXXXXXXXX",
"XXXXXXXXXXXXXXXXXXXXXXXXXXXXXXXXXXXXXXXXXXXXXXXXXXXXXXXXXXXXXXXXXXXXXXXXXXXXXXXXXXXXXXXXXXXXXXXXXXXXXXXXXXXXXXXXXXXXXXXXXXXXXXXX",
"XXXXXXXXXXXXXXXXXXXXXXXXXXXXXXXXXXXXXXXXXXXXXXXXXXXXXXXXXXXXXXXXXXXXXXXXXXXXXXXXXXXXXXXXXXXXXXXXXXXXXXXXXXXXXXXXXXXXXXXXXXXXXXXX",
"XXXXXXXXXXXXXXXXXXXXXXXXXXXXXXXXXXXXXXXXXXXXXXXXXXXXXXXXXXXXXXXXXXXXXXXXXXXXXXXXXXXXXXXXXXXXXXXXXXXXXXXXXXXXXXXXXXXXXXXXXXXXXXXX",
"XXXXXXXXXXXXXXXXXXXXXXXXXXXXXXXXXXXXXXXXXXXXXXXXXXXXXXXXXXXXXXXXXXXXXXXXXXXXXXXXXXXXXXXXXXXXXXXXXXXXXXXXXXXXXXXXXXXXXXXXXXXXXXXX",
"XXXXXXXXXXXXXXXXXXXXXXXXXXXXXXXXXXXXXXXXXXXXXXXX@X#X#X$X#X@XXX#X#X#XXXXXXXXXXXXXXXXXXXXXXXXXXXXXXXXXXXXXXXXXXXXXXXXXXXXXXXXXXXXX",
"XXXXXXXXXXXXXXXXXXXXXXXXXXXXXXXXXXXXXXXXXXXXXX).V.0.<.| T L L W O.0.G.[.$X#XXXXXXXXXXXXXXXXXXXXXXXXXXXXXXXXXXXXXXXXXXXXXXXXXXXXX",
"XXXXXXXXXXXXXXXXXXXXXXXXXXXXXXXXXXXXXXXXXXXX,.g > X @ = e t t 8 = X 4 b ) w.U.@X#XXXXXXXXXXXXXXXXXXXXXXXXXXXXXXXXXXXXXXXXXXXXXXX",
"XXXXXXXXXXXXXXXXXXXXXXXXXXXXXXXXXXXXXXXX@X:.= a ) 7.u.v.U.!.W.G.j.5.W h > X t W p.).#X@XXXXXXXXXXXXXXXXXXXXXXXXXXXXXXXXXXXXXXXXX",
"XXXXXXXXXXXXXXXXXXXXXXXXXXXXXXXXXXXXXX@Xg.< n U.$X$X@X@XXX@X@XXX#X$X$X'.V.,.A < @ h | l.'.@XXXXXXXXXXXXXXXXXXXXXXXXXXXXXXXXXXXXX",
"XXXXXXXXXXXXXXXXXXXXXXXXXXXXXXXXXXXXXXW.x 8 v.@XXX@XXXXXXXXXXXXXXXXXXXXX@X#XXXV.| x @ = x &.'.XXXXXXXXXXXXXXXXXXXXXXXXXXXXXXXXXX",
"XXXXXXXXXXXXXXXXXXXXXXXXXXXXXXXXXXXX[.T X ,.@XXXXXXXXXXXXXXXXXXXXXXXXXXXXXXXXX@X$X'.f.` g x U.XXXXXXXXXXXXXXXXXXXXXXXXXXXXXXXXXX",
"XXXXXXXXXXXXXXXXXXXXXXXXXXXXXXXXXX@Xw.@ R XXXXXXXXXXXXXXXXXXXXXXXXXXXXXXXXXXXXXXXXXX#X#X).U.XXXXXXXXXXXXXXXXXXXXXXXXXXXXXXXXXXXX",
"XXXXXXXXXXXXXXXXXXXXXXXXXXXXXXXXXXXXF e G.@XXXXXXXXXXXXXXXXXXXXXXXXXXXXXXXXXXXXXXXXXXXXXXXXXXXXXXXXXXXXXXXXXXXXXXXXXXXXXXXXXXXXX",
"XXXXXXXXXXXXXXXXXXXXXXXXXXXXXXXX@XG.5 P @XXXXXXXXXXXXXXXXXXXXXXXXXXXXXXXXXXXXXXXXXXXXXXXXXXXXXXXXXXXXXXXXXXXXXXXXXXXXXXXXXXXXXXX",
"XXXXXXXXXXXXXXXXXXXXXXXXXXXXXXXX@Xu.@ ,.$XXXXXXXXXXXXXXXXXXXXXXXXXXXXXXXXXXXXXXXXXXXXXXXXXXXXXXXXXXXXXXXXXXXXXXXXXXXXXXXXXXXXXXX",
"XXXXXXXXXXXXXXXXXXXXXXXXXXXXXXXX$X<.@ p.#XXXXXXXXXXXXXXXXXXXXXXXXXXXXXXXXXXXXXXXXXXXXXXXXXXXXXXXXXXXXXXXXXXXXXXXXXXXXXXXXXXXXXXX",
"XXXXXXXXXXXXXXXXXXXXXXXXXXXXXXXX$XO.= v.@XXXXXXXXXXXXXXXXXXXXXXXXXXXXXXXXXXXXXXXXXXXXXXXXXXXXXXXXXXXXXXXXXXXXXXXXXXXXXXXXXXXXXXX",
"XXXXXXXXXXXXXXXXXXXXXXXXXXXXXXXX$X[ > V.@XXXXXXXXXXXXXXXXXXXXXXXXXXXXXXXXXXXXXXXXXXXXXXXXXXXXXXXXXXXXXXXXXXXXXXXXXXXXXXXXXXXXXXX",
"XXXXXXXXXXXXXXXXXXXXXXXXXXXXXXXX$X| > v.XXXXXXXXXXXXXXXXXXXXXXXXXXXXXXXXXXXXXXXXXXXXXXXXXXXXXXXXXXXXXXXXXXXXXXXXXXXXXXXXXXXXXXXX",
"XXXXXXXXXXXXXXXXXXXXXXXXXXXXXXXX$X#.= l.@XXXXXXXXXXXXXXXXXXXXXXXXXXXXXXXXXXXXXXXXXXXXXXXXXXXXXXXXXXXXXXXXXXXXXXXXXXXXXXXXXXXXXXX",
"XXXXXXXXXXXXXXXXXXXXXXXXXXXXXXXX#X0.X 5.$XXXXXXXXXXXXXXXXXXXXXXXXXXXXXXXXXXXXXXXXXXXXXXXXXXXXXXXXXXXXXXXXXXXXXXXXXXXXXXXXXXXXXXX",
"XXXXXXXXXXXXXXXXXXXXXXXXXXXXXXXX@XG.8 L XXXXXXXXXXXXXXXXXXXXXXXXXXXXXXXXXXXXXXXXXXXXXXXXXXXXXXXXXXXXXXXXXXXXXXXXXXXXXXXXXXXXXXXX",
"XXXXXXXXXXXXXXXXXXXXXXXXXXXXXXXXXXXXW = p.#XXXXXXXXXXXXXXXXXXXXXXXXXXXXXXXXXXXXXXXXXXXXXXXXXXXXXXXXXXXXXXXXXXXXXXXXXXXXXXXXXXXXX",
"XXXXXXXXXXXXXXXXXXXXXXXXXXXXXXXXXXXXV.r h L.@XXXXXXXXXXXXXXXXXXXXXXXXXXXXXXXXXXXXXXXXXXXXXXXXXXXXXXXXXXXXXXXXXXXXXXXXXXXXXXXXXXX",
"XXXXXXXXXXXXXXXXXXXXXXXXXXXXXXXXXXXX@X2.@ m G.#XXXXXXXXXXXXXXXXXXXXXXXXXXXXXXXXXXXXXXXXXXXXXXXXXXXXXXXXXXXXXXXXXXXXXXXXXXXXXXXXX",
"XXXXXXXXXXXXXXXXXXXXXXXXXXXXXXXXXXXXXXXX-.= a w.XX@XXXXXXXXXXXXXXXXXXXXXXXXXXXXXXXXXXXXXXXXXXXXXXXXXXXXXXXXXXXXXXXXXXXXXXXXXXXXX",
"XXXXXXXXXXXXXXXXXXXXXXXXXXXXXXXXXXXXXXXXXX0.p @ P v.@X@XXXXXXXXXXXXXXXXXXXXXXXXXXXXXXXXXXXXXXXXXXXXXXXXXXXXXXXXXXXXXXXXXXXXXXXXX",
"XXXXXXXXXXXXXXXXXXXXXXXXXXXXXXXXXXXXXXXXXX#XJ.W > 8 ` v.).@X$X#X@X@XXXXXXXXXXXXXXXXXXXXXXXXXXXXXXXXXXXXXXXXXXXXXXXXXXXXXXXXXXXXX",
"XXXXXXXXXXXXXXXXXXXXXXXXXXXXXXXXXXXXXXXXXXXX@XXXg.F @ = g W 2.f.v.J.).XX#X#X@X@XXXXXXXXXXXXXXXXXXXXXXXXXXXXXXXXXXXXXXXXXXXXXXXXX",
"XXXXXXXXXXXXXXXXXXXXXXXXXXXXXXXXXXXXXXXXXXXXXXXX@X[.p.[ n 5 X @ > e i B T +.0.v.).@X@XXXXXXXXXXXXXXXXXXXXXXXXXXXXXXXXXXXXXXXXXXX",
"XXXXXXXXXXXXXXXXXXXXXXXXXXXXXXXXXXXXXXXXXXXXXXXXXXXX+X+X|.G.e.>.[ T C a e % X > k ) p.'.@X@X@XXXXXXXXXXXXXXXXXXXXXXXXXXXXXXXXXXX",
"XXXXXXXXXXXXXXXXXXXXXXXXXXXXXXXXXXXXXXXXXXXXXXXXXXXXXXXX|.+X+X+X#X#XXX).J.l.5.) x = @ m y.@X[.@XXXXXXXXXXXXXXXXXXXXXXXXXXXXXXXXX",
"XXXXXXXXXXXXXXXXXXXXXXXXXXXXXXXXXXXXXXXXXXXXXXXXXXXXXXXXXXXXXXXX@XXXXXXX@X@X#X#X'.x.' e > #.@X@XXX@XXXXXXXXXXXXXXXXXXXXXXXXXXXXX",
"XXXXXXXXXXXXXXXXXXXXXXXXXXXXXXXXXXXXXXXXXXXXXXXXXXXXXXXXXXXXXXXX@XXXXXXXXX[.@X@X@X@X#Xv.B   P W.@X[.XXXXXXXXXXXXXXXXXXXXXXXXXXXX",
"XXXXXXXXXXXXXXXXXXXXXXXXXXXXXXXXXXXXXXXXXXXXXXXXXXXXXXXXXXXXXXXXXXXXXXXXXXXXXXXXXXXXXX@X~.~ @ m G.@X'.@XXXXXXXXXXXXXXXXXXXXXXXXX",
"XXXXXXXXXXXXXXXXXXXXXXXXXXXXXXXXXXXXXXXXXXXXXXXXXXXXXXXXXXXXXXXXXXXXXXXXXXXXXXXXXXXXXXXX@X@X:.@ b J.@X@X@XXXXXXXXXXXXXXXXXXXXXXX",
"XXXXXXXXXXXXXXXXXXXXXXXXXXXXXX+X+XXXXXXXXXXXXXXXXXXXXXXXXXXXXXXXXXXXXXXXXXXXXXXXXXXXXXXXXX@X@X*.@ B W.@X'.XXXXXXXXXXXXXXXXXXXXXX",
"XXXXXXXXXXXXXXXXXXXXXXXXXXXXXXx.y.).+XXXXXXXXXXXXXXXXXXXXXXXXXXXXXXXXXXXXXXXXXXXXXXXXXXX@X'.@X[.#.@ L '.@XXXXXXXXXXXXXXXXXXXXXXX",
"XXXXXXXXXXXXXXXXXXXXXXXXXXXX+X~   b p.+XXXXXXXXXXXXXXXXXXXXXXXXXXXXXXXXXXXXXXXXXXXXXXXXXXXXXXX@X@XH 8 J.@X@XXXXXXXXXXXXXXXXXXXXX",
"XXXXXXXXXXXXXXXXXXXXXXXXXXXXXXE.+.8 = [ '.+XXXXXXXXXXXXXXXXXXXXXXXXXXXXXXXXXXXXXXXXXXXXXXXXXXXXX#XT e U.@X'XXXXXXXXXXXXXXXXXXXXX",
"XXXXXXXXXXXXXXXXXXXXXXXXXXXXXXXXXXV.D   C V.+XXXXXXXXXXXXXXXXXXXXXXXXXXXXXXX'.@XXXXXXXXX@XXX@X#Xp.e x '.'XXXXXXXXXXXXXXXXXXXXXXX",
"XXXXXXXXXXXXXXXXXXXXXXXXXXXXXXXXXX+X'.+.> u y.XX+X+XXX+XXXXXXXXXXXXXXXXXXXXX@X@XXXXXXXXX[.@X@X0.e t y.@XXXXXXXXXXXXXXXXXXXXXXXXX",
"XXXXXXXXXXXXXXXXXXXXXXXXXXXXXXXXXXXXXX+Xy.u @ D s.|.+X+X+X+X+X+X@X@X@X@X@X@X@X@X@X@X#X#X@XW.:.= g l.@XXXXXXXXXXXXXXXXXXXXXXXXXXX",
"XXXXXXXXXXXXXXXXXXXXXXXXXXXXXXXXXXXXXXXX+XG.) 8 ; v &.j.J.J.J.J.J.G.U.U.G.V.v.l.y.7.,.| G t   m G.@XXXXXXXXXXXXXXXXXXXXXXXXXXXXX",
"XXXXXXXXXXXXXXXXXXXXXXXXXXXXXXXXXXXXXXXXXX+XXXZ.` y @ % 4 9 w w e 8 e 8 5 > > @ @ @ @ = t F #.W.@XXXXXXXXXXXXXXXXXXXXXXXXXXXXXXX",
"XXXXXXXXXXXXXXXXXXXXXXXXXXXXXXXXXXXXXXXXXXXXXXXX+XE.a.o.( ! ! ! W W W W ~ ` } *.5.w.f.v.W.@X#XXXXXXXXXXXXXXXXXXXXXXXXXXXXXXXXXXX",
"XXXXXXXXXXXXXXXXXXXXXXXXXXXXXXXXXXXXXXXXXXXXXXXXXX+X+X+X+X+X+X+X+X+X+X+X+X+X+X+X#X#X#XXXXXXXXXXXXXXXXXXXXXXXXXXXXXXXXXXXXXXXXXXX",
"XXXXXXXXXXXXXXXXXXXXXXXXXXXXXXXXXXXXXXXXXXXXXXXXXXXXXXXXXXXXXXXXXXXXXXXXXXXXXXXXXXXXXXXXXXXXXXXXXXXXXXXXXXXXXXXXXXXXXXXXXXXXXXXX",
"XXXXXXXXXXXXXXXXXXXXXXXXXXXXXXXXXXXXXXXXXXXXXXXXXXXXXXXXXXXXXXXXXXXXXXXXXXXXXXXXXXXXXXXXXXXXXXXXXXXXXXXXXXXXXXXXXXXXXXXXXXXXXXXX",
"XXXXXXXXXXXXXXXXXXXXXXXXXXXXXXXXXXXXXXXXXXXXXXXXXXXXXXXXXXXXXXXXXXXXXXXXXXXXXXXXXXXXXXXXXXXXXXXXXXXXXXXXXXXXXXXXXXXXXXXXXXXXXXXX",
"XXXXXXXXXXXXXXXXXXXXXXXXXXXXXXXXXXXXXXXXXXXXXXXXXXXXXXXXXXXXXXXXXXXXXXXXXXXXXXXXXXXXXXXXXXXXXXXXXXXXXXXXXXXXXXXXXXXXXXXXXXXXXXXX",
"XXXXXXXXXXXXXXXXXXXXXXXXXXXXXXXXXXXXXXXXXXXXXXXXXXXXXXXXXXXXXXXXXXXXXXXXXXXXXXXXXXXXXXXXXXXXXXXXXXXXXXXXXXXXXXXXXXXXXXXXXXXXXXXX"
};
