/* XPM */
static char *west_2[] = {
/* columns rows colors chars-per-pixel */
"64 49 215 2 ",
"   c #0D0C11",
".  c #0E0E11",
"X  c #0F0E11",
"o  c #0F0F11",
"O  c #101011",
"+  c #141411",
"@  c #141511",
"#  c #151511",
"$  c #151611",
"%  c #161711",
"&  c #171811",
"*  c #171812",
"=  c #171912",
"-  c #181912",
";  c #181A12",
":  c #191A12",
">  c #191B12",
",  c #1B1C12",
"<  c #1B1D12",
"1  c #1C1E12",
"2  c #1D1F12",
"3  c #1D2012",
"4  c #1E2012",
"5  c #1E2112",
"6  c #1F2112",
"7  c #1F2212",
"8  c #202212",
"9  c #202312",
"0  c #212412",
"q  c #222512",
"w  c #232613",
"e  c #242713",
"r  c #242813",
"t  c #252813",
"y  c #262A13",
"u  c #272B13",
"i  c #292D13",
"p  c #292E13",
"a  c #2A2E13",
"s  c #2A2F13",
"d  c #2B2F13",
"f  c #2B3013",
"g  c #2C3013",
"h  c #2C3113",
"j  c #2D3313",
"k  c #2D3214",
"l  c #2F3414",
"z  c #2F3514",
"x  c #303614",
"c  c #313714",
"v  c #323814",
"b  c #333914",
"n  c #373D14",
"m  c #383F14",
"M  c #394015",
"N  c #394115",
"B  c #3A4115",
"V  c #3A4215",
"C  c #3B4215",
"Z  c #3B4315",
"A  c #3C4315",
"S  c #3D4515",
"D  c #3E4615",
"F  c #3F4715",
"G  c #404815",
"H  c #404915",
"J  c #414915",
"K  c #414A15",
"L  c #434C16",
"P  c #444D16",
"I  c #444E16",
"U  c #454E16",
"Y  c #454F16",
"T  c #475016",
"R  c #475116",
"E  c #485216",
"W  c #4A5416",
"Q  c #4A5516",
"!  c #4B5516",
"~  c #4B5616",
"^  c #4C5716",
"/  c #4D5816",
"(  c #4E5916",
")  c #4E5A17",
"_  c #4F5A17",
"`  c #515D17",
"'  c #525D17",
"]  c #535F17",
"[  c #546017",
"{  c #546117",
"}  c #556117",
"|  c #576317",
" . c #596618",
".. c #5A6818",
"X. c #5B6818",
"o. c #5B6918",
"O. c #5D6B18",
"+. c #5E6C18",
"@. c #5F6E18",
"#. c #627118",
"$. c #637118",
"%. c #637219",
"&. c #647319",
"*. c #657419",
"=. c #657519",
"-. c #667519",
";. c #667619",
":. c #677719",
">. c #687819",
",. c #697819",
"<. c #697919",
"1. c #6A7A19",
"2. c #6A7B19",
"3. c #6B7B19",
"4. c #6C7C19",
"5. c #6D7D19",
"6. c #6D7E19",
"7. c #6E7E1A",
"8. c #6E7F1A",
"9. c #6F801A",
"0. c #71831A",
"q. c #72831A",
"w. c #72841A",
"e. c #74861A",
"r. c #75871A",
"t. c #76881A",
"y. c #77891A",
"u. c #788A1A",
"i. c #788B1A",
"p. c #798B1A",
"a. c #798C1B",
"s. c #7A8D1B",
"d. c #7B8E1B",
"f. c #7C8F1B",
"g. c #7C901B",
"h. c #7E921B",
"j. c #7F921B",
"k. c #7F931B",
"l. c #80941B",
"z. c #81951B",
"x. c #82961B",
"c. c #82971B",
"v. c #859A1C",
"b. c #869B1C",
"n. c #879C1C",
"m. c #879D1C",
"M. c #889D1C",
"N. c #899E1C",
"B. c #899F1C",
"V. c #8A9F1C",
"C. c #8AA01C",
"Z. c #8BA11C",
"A. c #8DA31C",
"S. c #8DA41C",
"D. c #8FA51D",
"F. c #8FA61D",
"G. c #91A81D",
"H. c #93AA1D",
"J. c #93AB1D",
"K. c #95AC1D",
"L. c #95AD1D",
"P. c #96AD1D",
"I. c #96AE1D",
"U. c #97AF1D",
"Y. c #98B01D",
"T. c #98B11D",
"R. c #9AB31E",
"E. c #9BB41E",
"W. c #9DB61E",
"Q. c #9DB71E",
"!. c #9EB71E",
"~. c #9EB81E",
"^. c #9FB81E",
"/. c #9FB91E",
"(. c #A0B91E",
"). c #A0BA1E",
"_. c #A1BB1E",
"`. c #A2BC1E",
"'. c #A3BD1E",
"]. c #A3BD1F",
"[. c #A3BE1F",
"{. c #A4BE1F",
"}. c #A4BF1F",
"|. c #A5BF1F",
" X c #A5C01F",
".X c #A6C11F",
"XX c #A7C21F",
"oX c #A7C31F",
"OX c #A8C31F",
"+X c #A9C41F",
"@X c #A9C51F",
"#X c #AAC51F",
"$X c #ABC61F",
"%X c #ABC71F",
"&X c #ACC81F",
"*X c #ADC91F",
"=X c #ADC920",
"-X c #ADCA20",
";X c #AECA20",
":X c #AECB20",
">X c #AFCB20",
",X c #AFCC20",
"<X c #B0CC20",
"1X c #B0CD20",
"2X c #B1CD20",
"3X c #B1CE20",
"4X c #B2CF20",
"5X c #B2D020",
"6X c #B3D020",
"7X c #B3D120",
"8X c #B4D120",
"9X c #B4D220",
"0X c #B5D220",
"qX c #B6D320",
"wX c #B7D520",
/* pixels */
"4X4X4X4X4X4X4X4X4X4X4X4X4X4X4X4X4X4X4X4X4X4X4X4X4X4X4X4X4X4X4X4X4X4X4X4X4X4X4X4X4X4X4X4X4X4X4X4X4X4X4X4X4X4X4X4X4X4X4X4X4X4X4X4X",
"4X4X4X4X4X4X4X4X4X4X4X4X4X4X4X4X4X4X4X4X4X4X4X4X4X4X4X4X4X4X4X4X4X4X4X4X4X4X4X4X4X4X4X4X4X4X4X4X4X4X4X4X4X4X4X4X4X4X4X4X4X4X4X4X",
"4X4X4X4X4X4X4X4X4X4X4X4X4X4X4X4X4X4X4X4X4X4X4X4X4X4X4X4X4X4X4X4X4X4X4X4X4X4X4X4X4X4X4X4X4X4X4X4X4X4X4X4X4X4X4X4X4X4X4X4X4X4X4X4X",
"4X4X4X4X4X4X4X4X4X4X4X4X4X4X4X4X4X4X4X4X4X4X4X4X4X4X4X4X4X4X4X4X4X4X4X4X4X4X4X4X4X4X4X4X4X4X4X4X4X4X4X4X4X4X4X4X4X4X4X4X4X4X4X4X",
"4X4X4X4X4X4X4X4X4X4X4X4X4X4X4X4X4X4X4X4X4X4X4X4X4X4X4X4X4X4X4X4X4X4X4X4X4X4X4X4X4X4X4X4X4X4X4X4X4X4X4X4X4X4X4X4X4X4X4X4X4X4X4X4X",
"4X4X4X4X4X4X4X4X4X4X4X4X4X4X4X4X4X4X4X4X4X4X4X4X4X4X4X4X4X4X4X4X4X4X4X4X4X4X4X4X4X4X4X4X4X4X4X4X4X4X4X4X4X4X4X4X4X4X4X4X4X4X4X4X",
"4X4X4X4X4X4X4X4X4X4X4X4X4X4X4X4X4X4X4X4X4X4X4X4X4X4X4X4X4X4X4X4X4X4X4X4X4X4X4X4X4X4X4X4X4X4X4X4X4X4X4X4X4X4X4X4X4X4X4X4X4X4X4X4X",
"4X4X4X4X4X4X4X4X4X4X4X4X4X4X4X4X4X4X4X4X4X4X4X4X4X4X4X4X4X4X4X4X4X4X4X4X4X4X4X4X4X4X4X4X4X4X4X4X4X4X4X4X4X4X4X4X4X4X4X4X4X4X4X4X",
"4X4X4X4X4X4X4X4X4X4X4X4X4X4X4X4X9X9X4X4X4X4X4X4X4X4X4X4X4X4X4X4X4X4X4X4X4X4X4X4X4X4X4X4X4X4X4X4X4X4X4X4X4X4X4X4X4X4X4X4X4X4X4X4X",
"4X4X4X4X4X4X4X4X4X4X4X4X4X4X4X-Xy.H.7X4X4X4X4X4X4X4X4X4X4X4X4X4X4X9X4X4X4X4X4X4X4X4X4X4X4X4X4X4X7X7X4X4X4X4X4X4X4X4X4X4X4X4X4X4X",
"4X4X4X4X4X4X4X4X4X4X4X4X4X4X7X/.w ..9X4X4X4X4X4X4X4X4X4X4X4X4X7XQ.e.OX7X4X4X4X4X4X4X4X4X4X4X4X-X8.D.7X4X4X4X4X4X4X4X4X4X4X4X4X4X",
"4X4X4X4X4X4X4X4X4X4X4X4X4X4X7XQ.w [ 7X4X4X4X4X4X4X4X4X4X4X4X4X7X@.% C.9X4X4X4X4X4X4X4X4X4X4X9XM.* <.9X4X4X4X4X4X4X4X4X4X4X4X4X4X",
"4X4X4X4X4X4X4X4X4X4X4X4X4X4X7X|.f E 4X4X4X4X4X4X4X4X4X4X4X4X7X`.a o 0.9X4X4X4X4X4X4X4X4X4X4X9X*.: D.9X4X4X4X4X4X4X4X4X4X4X4X4X4X",
"4X4X4X4X4X4X4X4X4X4X4X4X4X4X4X-XS b @X4X4X4X4X4X4X4X4X4X4X4X9Xf.+ o ` 4X4X4X4X4X4X4X4X4X4X4X-XS x oX7X4X4X4X4X4X4X4X4X4X4X4X4X4X",
"4X4X4X4X4X4X4X4X4X4X4X4X4X4X4X7X[ w /.7X4X4X4X4X4X4X4X4X4X7XE.x u a b @X7X4X4X4X4X4X4X4X4X7XY.3 [ 4X4X4X4X4X4X4X4X4X4X4X4X4X4X4X",
"4X4X4X4X4X4X4X4X4X4X4X4X4X4X4X9X<.: D.9X4X4X4X4X4X4X4X4X4X7XO.% y.O.3 Y.7X4X4X4X4X4X4X4X4X9Xd.% h.9X4X4X4X4X4X4X4X4X4X4X4X4X4X4X",
"4X4X4X4X4X4X4X4X4X4X4X4X4X4X4X9Xl.% d.9X4X4X4X4X4X4X4X4X7X`.k n -Xd.% h.9X4X4X4X4X4X4X4X4X4X/ w Q.7X4X4X4X4X4X4X4X4X4X4X4X4X4X4X",
"4X4X4X4X4X4X4X4X4X4X4X4X4X4X4X7XH., *.9X4X4X4X4X4X4X4X4X7X<.% e.wXY.3 [ 4X4X4X4X4X4X4X4X4X`.a P ,X4X4X4X4X4X4X4X4X4X4X4X4X4X4X4X",
"4X4X4X4X4X4X4X4X4X4X4X4X4X4X4X7X`.u ! 4X4X4X4X4X4X4X4X7XQ.u C @X7X-XH g |.7X4X4X4X4X4X4X9XM.* 8.9X4X4X4X4X4X4X4X4X4X4X4X4X4X4X4X",
"4X4X4X4X4X4X4X4X4X4X4X4X4X4X4X4X-XH z oX7X4X4X4X4X4X4X7X*.% h.9X4X9X8.% v.9X4X4X4X4X4X4X9X&.: D.9X4X4X4X4X4X4X4X4X4X4X4X4X4X4X4X",
"4X4X4X4X4X4X4X4X4X4X4X4X4X4X4X4X9X@.1 K.9X4X4X4X4X4X7X_.d C @X4X4X7XK.3  .4X4X4X4X4X4X4X-XH k oX7X4X4X4X4X4X4X4X4X4X4X4X4X4X4X4X",
"4X4X4X4X4X4X4X4X4X4X4X4X4X4X4X4X9Xh.% d.9X4X4X4X4X4X9Xe.% y.9X4X4X4X-XS z oX7X4X4X4X4X7X_.u / 4X4X4X4X4X4X4X4X4X4X4X4X4X4X4X4X4X",
"4X4X4X4X4X4X4X4X4X4X4X4X4X4X4X4X7XY.3 ..7X4X4X4X4X4X=XC g `.7X4X4X4X9X<.: m.9X4X4X4X4X9XM.* 9.9X4X4X4X4X4X4X4X4X4X4X4X4X4X4X4X4X",
"4X4X4X4X4X4X4X4X4X4X4X4X4X4X4X4X7X@Xb C -X4X4X4X4X9Xv.* $.7X4X4X4X4X9XK., O.7X4X4X4X4X9X<.: D.9X4X4X4X4X4X4X4X4X4X4X4X4X4X4X4X4X",
"4X4X4X4X4X4X4X4X4X4X4X4X4X4X4X4X4X4X` w /.7X4X4X4X4X/ 3 K.9X4X4X4X4X7X@Xb C -X7X4X4X4X,XR a `.7X4X4X4X4X4X4X4X4X4X4X4X4X4X4X4X4X",
"4X4X4X4X4X4X4X4X4X4X4X4X4X4X4X4X4X9Xw.% m.9X4X4X9XK.9 / 4X4X4X4X4X4X4X4X/ u /.7X4X4X7X|.f P ,X4X4X4X4X4X4X4X4X4X4X4X4X4X4X4X4X4X",
"4X4X4X4X4X4X4X4X4X4X4X4X4X4X4X4X4X9XD.: *.9X4X4X7XO.: M.9X4X4X4X4X4X4X9X8.* M.9X4X4X9XC.: <.9X4X4X4X4X4X4X4X4X4X4X4X4X4X4X4X4X4X",
"4X4X4X4X4X4X4X4X4X4X4X4X4X4X4X4X4X4X|.a R 4X4X7XQ.u H -X7X4X4X4X4X4X4X9XC.* 8.9X4X4X9X$.: D.9X4X4X4X4X4X4X4X4X4X4X4X4X4X4X4X4X4X",
"4X4X4X4X4X4X4X4X4X4X4X4X4X4X4X4X4X4X,XP k oX7X7X*.% h.9X4X4X4X4X4X4X4X7X_.u ! 4X4X4X@XC b OX4X4X4X4X4X4X4X4X4X4X4X4X4X4X4X4X4X4X",
"4X4X4X4X4X4X4X4X4X4X4X4X4X4X4X4X4X4X9X*., H.9X_.d C @X7X4X4X4X4X4X4X4X4X-XS x @X7X7XK.1 ..7X4X4X4X4X4X4X4X4X4X4X4X4X4X4X4X4X4X4X",
"4X4X4X4X4X4X4X4X4X4X4X4X4X4X4X4X4X4X9Xc.% d.wXd.% w.9X4X4X4X4X4X4X4X4X4X7X .3 K.7X9Xw.% x.9X4X4X4X4X4X4X4X4X4X4X4X4X4X4X4X4X4X4X",
"4X4X4X4X4X4X4X4X4X4X4X4X4X4X4X4X4X4X7XY.3  .,XP u /.7X4X4X4X4X4X4X4X4X4X9Xx.* w.9X4X/ u /.7X4X4X4X4X4X4X4X4X4X4X4X4X4X4X4X4X4X4X",
"4X4X4X4X4X4X4X4X4X4X4X4X4X4X4X4X4X4X4X@Xb F H.3 ` 4X4X4X4X4X4X4X4X4X4X4X7XQ.w / 4X|.f H ,X7X4X4X4X4X4X4X4X4X4X4X4X4X4X4X4X4X4X4X",
"4X4X4X4X4X4X4X4X4X4X4X4X4X4X4X4X4X4X4X4X! f *.* l.7X4X4X4X4X4X4X4X4X4X4X4X=Xm x @XD.: <.9X4X4X4X4X4X4X4X4X4X4X4X4X4X4X4X4X4X4X4X",
"4X4X4X4X4X4X4X4X4X4X4X4X4X4X4X4X4X4X4X7X*.: k u _.7X4X4X4X4X4X4X4X4X4X4X4X7X..3 E.8.: C.9X4X4X4X4X4X4X4X4X4X4X4X4X4X4X4X4X4X4X4X",
"4X4X4X4X4X4X4X4X4X4X4X4X4X4X4X4X4X4X4X9Xh.% o R ,X4X4X4X4X4X4X4X4X4X4X4X4X9X*.* v.! a `.7X4X4X4X4X4X4X4X4X4X4X4X4X4X4X4X4X4X4X4X",
"4X4X4X4X4X4X4X4X4X4X4X4X4X4X4X4X4X4X4X9XD.: o 8.9X4X4X4X4X4X4X4X4X4X4X4X4X9XM., E f R 4X4X4X4X4X4X4X4X4X4X4X4X4X4X4X4X4X4X4X4X4X",
"4X4X4X4X4X4X4X4X4X4X4X4X4X4X4X4X4X4X4X7XH.* w K.7X7X4X4X4X4X4X4X4X4X4X4X4X4X-XC * % <.9X4X4X4X4X4X4X4X4X4X4X4X4X4X4X4X4X4X4X4X4X",
"4X4X4X4X4X4X4X4X4X4X4X4X4X4X4X4X4X4X4X7XY.u  .4X4X4X4X4X4X4X4X4X4X4X4X4X4X4X7X@.o 9 H.7X4X4X4X4X4X4X4X4X4X4X4X4X4X4X4X4X4X4X4X4X",
"4X4X4X4X4X4X4X4X4X4X4X4X4X4X4X4X4X4X4X7X-XH.oX7X4X4X4X4X4X4X4X4X4X4X4X4X4X4X9XD.a <.4X4X4X4X4X4X4X4X4X4X4X4X4X4X4X4X4X4X4X4X4X4X",
"4X4X4X4X4X4X4X4X4X4X4X4X4X4X4X4X4X4X4X4X4X7X7X4X4X4X4X4X4X4X4X4X4X4X4X4X4X4X4X4X/.-X4X4X4X4X4X4X4X4X4X4X4X4X4X4X4X4X4X4X4X4X4X4X",
"4X4X4X4X4X4X4X4X4X4X4X4X4X4X4X4X4X4X4X4X4X4X4X4X4X4X4X4X4X4X4X4X4X4X4X4X4X4X4X4X7X4X4X4X4X4X4X4X4X4X4X4X4X4X4X4X4X4X4X4X4X4X4X4X",
"4X4X4X4X4X4X4X4X4X4X4X4X4X4X4X4X4X4X4X4X4X4X4X4X4X4X4X4X4X4X4X4X4X4X4X4X4X4X4X4X4X4X4X4X4X4X4X4X4X4X4X4X4X4X4X4X4X4X4X4X4X4X4X4X",
"4X4X4X4X4X4X4X4X4X4X4X4X4X4X4X4X4X4X4X4X4X4X4X4X4X4X4X4X4X4X4X4X4X4X4X4X4X4X4X4X4X4X4X4X4X4X4X4X4X4X4X4X4X4X4X4X4X4X4X4X4X4X4X4X",
"4X4X4X4X4X4X4X4X4X4X4X4X4X4X4X4X4X4X4X4X4X4X4X4X4X4X4X4X4X4X4X4X4X4X4X4X4X4X4X4X4X4X4X4X4X4X4X4X4X4X4X4X4X4X4X4X4X4X4X4X4X4X4X4X",
"4X4X4X4X4X4X4X4X4X4X4X4X4X4X4X4X4X4X4X4X4X4X4X4X4X4X4X4X4X4X4X4X4X4X4X4X4X4X4X4X4X4X4X4X4X4X4X4X4X4X4X4X4X4X4X4X4X4X4X4X4X4X4X4X",
"4X4X4X4X4X4X4X4X4X4X4X4X4X4X4X4X4X4X4X4X4X4X4X4X4X4X4X4X4X4X4X4X4X4X4X4X4X4X4X4X4X4X4X4X4X4X4X4X4X4X4X4X4X4X4X4X4X4X4X4X4X4X4X4X",
"4X4X4X4X4X4X4X4X4X4X4X4X4X4X4X4X4X4X4X4X4X4X4X4X4X4X4X4X4X4X4X4X4X4X4X4X4X4X4X4X4X4X4X4X4X4X4X4X4X4X4X4X4X4X4X4X4X4X4X4X4X4X4X4X",
"4X4X4X4X4X4X4X4X4X4X4X4X4X4X4X4X4X4X4X4X4X4X4X4X4X4X4X4X4X4X4X4X4X4X4X4X4X4X4X4X4X4X4X4X4X4X4X4X4X4X4X4X4X4X4X4X4X4X4X4X4X4X4X4X"
};
